<svg version="1.2" baseProfile="tiny-ps" xmlns="http://www.w3.org/2000/svg" viewBox="0 0 500 500" width="500" height="500">
	<title>Sin título-3-svg</title>
	<style>
		tspan { white-space:pre }
		.shp0 { fill: #000000 } 
		.shp1 { fill: #ffffff } 
		.shp2 { fill: #3562ff } 
	</style>
	<path id="Layer" class="shp0" d="M250 122.66C332.95 122.66 400 189.71 400 272.66C400 355.61 332.95 422.66 250 422.66C167.05 422.66 100 355.61 100 272.66C100 189.71 167.05 122.66 250 122.66Z" />
	<path id="Layer" class="shp1" d="M295.22 167.81L339.6 344.18L339.6 153.08C339.6 142.5 341.96 134.57 346.68 129.29C351.4 124 357.66 121.36 365.47 121.36C373.02 121.36 379.19 123.97 383.98 129.2C388.77 134.42 391.16 142.39 391.16 153.09L391.16 372.13C391.16 384.22 388.01 392.37 381.72 396.58C375.43 400.8 366.93 402.91 356.23 402.91L338.86 402.91C328.41 402.91 320.83 401.97 316.11 400.08C311.39 398.19 307.89 394.79 305.63 389.88C303.36 384.97 300.79 376.97 297.89 365.9L257.67 214.26L217.45 365.9C214.56 376.98 211.97 384.97 209.71 389.88C207.44 394.79 203.95 398.19 199.23 400.08C194.51 401.97 186.93 402.91 176.47 402.91L159.1 402.91C148.4 402.91 139.9 400.8 133.61 396.58C127.32 392.36 124.17 384.21 124.17 372.13L124.17 153.08C124.17 142.5 126.53 134.57 131.25 129.29C135.97 124 142.3 121.36 150.23 121.36C157.66 121.36 163.77 124 168.55 129.29C173.34 134.58 175.73 142.51 175.73 153.08L175.73 344.18L220.11 167.81C223.01 156.35 225.37 147.95 227.19 142.6C229.02 137.25 232.38 132.37 237.29 127.97C242.2 123.56 249 121.36 257.68 121.36C264.23 121.36 269.77 122.78 274.3 125.61C278.83 128.44 282.36 132.06 284.87 136.47C287.39 140.88 289.37 145.75 290.82 151.1C292.23 156.44 293.7 162.01 295.22 167.81Z" />
	<g id="Layer">
		<path id="Layer" class="shp2" d="M288.06 160.42L332.44 336.79L332.44 145.69C332.44 135.12 334.8 127.18 339.52 121.9C344.24 116.61 350.5 113.97 358.31 113.97C365.86 113.97 372.03 116.58 376.82 121.81C381.61 127.03 384 135 384 145.7L384 364.74C384 376.83 380.85 384.98 374.56 389.19C368.27 393.41 359.77 395.52 349.07 395.52L331.7 395.52C321.25 395.52 313.67 394.58 308.95 392.69C304.23 390.8 300.74 387.4 298.47 382.49C296.2 377.58 293.63 369.58 290.73 358.51L250.51 206.87L210.29 358.51C207.4 369.59 204.81 377.58 202.55 382.49C200.28 387.4 196.79 390.8 192.07 392.69C187.35 394.58 179.77 395.52 169.32 395.52L151.95 395.52C141.25 395.52 132.75 393.41 126.46 389.19C120.17 384.97 117.02 376.82 117.02 364.74L117.02 145.69C117.02 135.12 119.38 127.18 124.1 121.9C128.82 116.62 135.15 113.97 143.08 113.97C150.51 113.97 156.61 116.61 161.4 121.9C166.19 127.19 168.58 135.12 168.58 145.69L168.58 336.79L212.9 160.42C215.8 148.96 218.16 140.56 219.98 135.21C221.81 129.86 225.17 124.98 230.08 120.58C234.99 116.18 241.79 113.97 250.48 113.97C257.03 113.97 262.57 115.39 267.1 118.22C271.63 121.05 275.16 124.67 277.68 129.08C280.2 133.49 282.18 138.36 283.63 143.71C285.07 149.06 286.55 154.63 288.06 160.42Z" />
	</g>
</svg>